<mxfile host="app.diagrams.net" modified="2021-10-06T21:35:22.741Z" agent="5.0 (Windows NT 10.0; Win64; x64) AppleWebKit/537.36 (KHTML, like Gecko) Chrome/93.0.4577.82 Safari/537.36 OPR/79.0.4143.73" etag="UCmdayyisDO4I3gvOjJ0" version="15.4.3" type="github">
  <diagram id="URQ9tQ26NzdQzB6YtkCQ" name="Page-1">
    <mxGraphModel dx="827" dy="462" grid="1" gridSize="10" guides="1" tooltips="1" connect="1" arrows="1" fold="1" page="1" pageScale="1" pageWidth="827" pageHeight="1169" math="0" shadow="0">
      <root>
        <mxCell id="0" />
        <mxCell id="1" parent="0" />
        <mxCell id="WueEC3KFdfhdDTLadoef-1" value="&lt;b&gt;Inicio&lt;/b&gt;" style="ellipse;whiteSpace=wrap;html=1;fontSize=25;" parent="1" vertex="1">
          <mxGeometry x="330" y="20" width="180" height="80" as="geometry" />
        </mxCell>
        <mxCell id="WueEC3KFdfhdDTLadoef-2" value="digite sue email" style="shape=display;whiteSpace=wrap;html=1;fontSize=21;fontFamily=Verdana;" parent="1" vertex="1">
          <mxGeometry x="335" y="130" width="165" height="70" as="geometry" />
        </mxCell>
        <mxCell id="WueEC3KFdfhdDTLadoef-4" value="" style="endArrow=classic;html=1;rounded=0;fontSize=25;edgeStyle=orthogonalEdgeStyle;exitX=0.5;exitY=1;exitDx=0;exitDy=0;" parent="1" source="WueEC3KFdfhdDTLadoef-1" edge="1">
          <mxGeometry width="50" height="50" relative="1" as="geometry">
            <mxPoint x="420" y="170" as="sourcePoint" />
            <mxPoint x="420" y="130" as="targetPoint" />
          </mxGeometry>
        </mxCell>
        <mxCell id="WueEC3KFdfhdDTLadoef-6" value="Email inserido&amp;nbsp;" style="rounded=0;whiteSpace=wrap;html=1;fontFamily=Helvetica;fontSize=21;" parent="1" vertex="1">
          <mxGeometry x="329" y="230" width="201" height="60" as="geometry" />
        </mxCell>
        <mxCell id="WueEC3KFdfhdDTLadoef-9" value="" style="endArrow=classic;html=1;rounded=0;fontFamily=Helvetica;fontSize=21;edgeStyle=orthogonalEdgeStyle;exitX=0.571;exitY=1;exitDx=0;exitDy=0;exitPerimeter=0;entryX=0.5;entryY=0;entryDx=0;entryDy=0;" parent="1" source="WueEC3KFdfhdDTLadoef-2" target="WueEC3KFdfhdDTLadoef-6" edge="1">
          <mxGeometry width="50" height="50" relative="1" as="geometry">
            <mxPoint x="390" y="250" as="sourcePoint" />
            <mxPoint x="430" y="230" as="targetPoint" />
          </mxGeometry>
        </mxCell>
        <mxCell id="WueEC3KFdfhdDTLadoef-27" style="edgeStyle=orthogonalEdgeStyle;rounded=0;orthogonalLoop=1;jettySize=auto;html=1;exitX=1;exitY=0.5;exitDx=0;exitDy=0;exitPerimeter=0;fontFamily=Helvetica;fontSize=21;" parent="1" source="WueEC3KFdfhdDTLadoef-13" edge="1">
          <mxGeometry relative="1" as="geometry">
            <mxPoint x="570" y="415" as="targetPoint" />
          </mxGeometry>
        </mxCell>
        <mxCell id="WueEC3KFdfhdDTLadoef-28" style="edgeStyle=orthogonalEdgeStyle;rounded=0;orthogonalLoop=1;jettySize=auto;html=1;fontFamily=Helvetica;fontSize=21;" parent="1" source="WueEC3KFdfhdDTLadoef-13" edge="1">
          <mxGeometry relative="1" as="geometry">
            <mxPoint x="290" y="415" as="targetPoint" />
          </mxGeometry>
        </mxCell>
        <mxCell id="WueEC3KFdfhdDTLadoef-13" value="O emial esta correto?" style="strokeWidth=2;html=1;shape=mxgraph.flowchart.decision;whiteSpace=wrap;fontFamily=Helvetica;fontSize=21;" parent="1" vertex="1">
          <mxGeometry x="329" y="350" width="201" height="130" as="geometry" />
        </mxCell>
        <mxCell id="WueEC3KFdfhdDTLadoef-14" value="" style="endArrow=classic;html=1;rounded=0;fontFamily=Helvetica;fontSize=21;edgeStyle=orthogonalEdgeStyle;exitX=0.5;exitY=1;exitDx=0;exitDy=0;entryX=0.5;entryY=0;entryDx=0;entryDy=0;entryPerimeter=0;" parent="1" source="WueEC3KFdfhdDTLadoef-6" target="WueEC3KFdfhdDTLadoef-13" edge="1">
          <mxGeometry width="50" height="50" relative="1" as="geometry">
            <mxPoint x="300" y="350" as="sourcePoint" />
            <mxPoint x="350" y="300" as="targetPoint" />
          </mxGeometry>
        </mxCell>
        <mxCell id="WueEC3KFdfhdDTLadoef-29" value="Sim" style="text;html=1;strokeColor=none;fillColor=none;align=center;verticalAlign=middle;whiteSpace=wrap;rounded=0;fontFamily=Helvetica;fontSize=21;" parent="1" vertex="1">
          <mxGeometry x="275" y="380" width="60" height="30" as="geometry" />
        </mxCell>
        <mxCell id="WueEC3KFdfhdDTLadoef-30" value="Não" style="text;html=1;strokeColor=none;fillColor=none;align=center;verticalAlign=middle;whiteSpace=wrap;rounded=0;fontFamily=Helvetica;fontSize=21;" parent="1" vertex="1">
          <mxGeometry x="520" y="380" width="60" height="30" as="geometry" />
        </mxCell>
        <mxCell id="WueEC3KFdfhdDTLadoef-33" style="edgeStyle=orthogonalEdgeStyle;rounded=0;orthogonalLoop=1;jettySize=auto;html=1;fontFamily=Helvetica;fontSize=21;" parent="1" source="WueEC3KFdfhdDTLadoef-32" target="WueEC3KFdfhdDTLadoef-34" edge="1">
          <mxGeometry relative="1" as="geometry">
            <mxPoint x="680" y="490" as="targetPoint" />
          </mxGeometry>
        </mxCell>
        <mxCell id="WueEC3KFdfhdDTLadoef-32" value="Seu email esta incorreto, tente novamente" style="shape=display;whiteSpace=wrap;html=1;fontFamily=Helvetica;fontSize=21;" parent="1" vertex="1">
          <mxGeometry x="570" y="380" width="220" height="72.5" as="geometry" />
        </mxCell>
        <mxCell id="WueEC3KFdfhdDTLadoef-34" value="Fim" style="ellipse;whiteSpace=wrap;html=1;fontFamily=Helvetica;fontSize=21;" parent="1" vertex="1">
          <mxGeometry x="620" y="505" width="120" height="80" as="geometry" />
        </mxCell>
        <mxCell id="WueEC3KFdfhdDTLadoef-38" style="edgeStyle=orthogonalEdgeStyle;rounded=0;orthogonalLoop=1;jettySize=auto;html=1;fontFamily=Helvetica;fontSize=21;" parent="1" source="WueEC3KFdfhdDTLadoef-35" target="WueEC3KFdfhdDTLadoef-39" edge="1">
          <mxGeometry relative="1" as="geometry">
            <mxPoint x="180" y="510" as="targetPoint" />
          </mxGeometry>
        </mxCell>
        <mxCell id="WueEC3KFdfhdDTLadoef-35" value="Email Correto&amp;nbsp;&lt;span style=&quot;color: rgb(189 , 193 , 198) ; font-family: &amp;#34;arial&amp;#34; , sans-serif ; font-size: 16px ; text-align: left ; background-color: rgb(32 , 33 , 36)&quot;&gt;✓&lt;/span&gt;" style="shape=display;whiteSpace=wrap;html=1;fontFamily=Helvetica;fontSize=21;rotation=0;" parent="1" vertex="1">
          <mxGeometry x="70" y="380" width="220" height="72.5" as="geometry" />
        </mxCell>
        <mxCell id="WueEC3KFdfhdDTLadoef-40" style="edgeStyle=orthogonalEdgeStyle;rounded=0;orthogonalLoop=1;jettySize=auto;html=1;fontFamily=Helvetica;fontSize=21;" parent="1" source="WueEC3KFdfhdDTLadoef-39" edge="1">
          <mxGeometry relative="1" as="geometry">
            <mxPoint x="180" y="600" as="targetPoint" />
          </mxGeometry>
        </mxCell>
        <mxCell id="WueEC3KFdfhdDTLadoef-39" value="Insira a senha" style="shape=display;whiteSpace=wrap;html=1;fontFamily=Helvetica;fontSize=21;" parent="1" vertex="1">
          <mxGeometry x="70" y="490" width="220" height="70" as="geometry" />
        </mxCell>
        <mxCell id="WueEC3KFdfhdDTLadoef-43" style="edgeStyle=orthogonalEdgeStyle;rounded=0;orthogonalLoop=1;jettySize=auto;html=1;fontFamily=Helvetica;fontSize=21;" parent="1" source="WueEC3KFdfhdDTLadoef-42" target="WueEC3KFdfhdDTLadoef-45" edge="1">
          <mxGeometry relative="1" as="geometry">
            <mxPoint x="340" y="630" as="targetPoint" />
          </mxGeometry>
        </mxCell>
        <mxCell id="WueEC3KFdfhdDTLadoef-42" value="Senha inserida" style="rounded=0;whiteSpace=wrap;html=1;fontFamily=Helvetica;fontSize=21;" parent="1" vertex="1">
          <mxGeometry x="80" y="600" width="200" height="60" as="geometry" />
        </mxCell>
        <mxCell id="WueEC3KFdfhdDTLadoef-59" style="edgeStyle=orthogonalEdgeStyle;rounded=0;orthogonalLoop=1;jettySize=auto;html=1;fontFamily=Helvetica;fontSize=21;" parent="1" source="WueEC3KFdfhdDTLadoef-45" target="WueEC3KFdfhdDTLadoef-62" edge="1">
          <mxGeometry relative="1" as="geometry">
            <mxPoint x="410" y="730" as="targetPoint" />
          </mxGeometry>
        </mxCell>
        <mxCell id="WueEC3KFdfhdDTLadoef-60" style="edgeStyle=orthogonalEdgeStyle;rounded=0;orthogonalLoop=1;jettySize=auto;html=1;fontFamily=Helvetica;fontSize=21;" parent="1" source="WueEC3KFdfhdDTLadoef-45" target="WueEC3KFdfhdDTLadoef-61" edge="1">
          <mxGeometry relative="1" as="geometry">
            <mxPoint x="470" y="730" as="targetPoint" />
          </mxGeometry>
        </mxCell>
        <mxCell id="WueEC3KFdfhdDTLadoef-45" value="A senha esta certa?" style="strokeWidth=2;html=1;shape=mxgraph.flowchart.decision;whiteSpace=wrap;fontFamily=Helvetica;fontSize=21;" parent="1" vertex="1">
          <mxGeometry x="335" y="565" width="210" height="130" as="geometry" />
        </mxCell>
        <mxCell id="WueEC3KFdfhdDTLadoef-65" value="" style="edgeStyle=orthogonalEdgeStyle;rounded=0;orthogonalLoop=1;jettySize=auto;html=1;fontFamily=Helvetica;fontSize=21;" parent="1" source="WueEC3KFdfhdDTLadoef-61" target="WueEC3KFdfhdDTLadoef-64" edge="1">
          <mxGeometry relative="1" as="geometry" />
        </mxCell>
        <mxCell id="WueEC3KFdfhdDTLadoef-61" value="Senha incorreta tente novamente" style="shape=display;whiteSpace=wrap;html=1;fontFamily=Helvetica;fontSize=21;" parent="1" vertex="1">
          <mxGeometry x="470" y="730" width="180" height="80" as="geometry" />
        </mxCell>
        <mxCell id="WueEC3KFdfhdDTLadoef-67" value="" style="edgeStyle=orthogonalEdgeStyle;rounded=0;orthogonalLoop=1;jettySize=auto;html=1;fontFamily=Helvetica;fontSize=21;" parent="1" source="WueEC3KFdfhdDTLadoef-62" target="WueEC3KFdfhdDTLadoef-66" edge="1">
          <mxGeometry relative="1" as="geometry" />
        </mxCell>
        <mxCell id="WueEC3KFdfhdDTLadoef-62" value="Seja bem vindo!" style="shape=display;whiteSpace=wrap;html=1;fontFamily=Helvetica;fontSize=21;" parent="1" vertex="1">
          <mxGeometry x="230" y="730" width="180" height="80" as="geometry" />
        </mxCell>
        <mxCell id="WueEC3KFdfhdDTLadoef-64" value="Fim" style="ellipse;whiteSpace=wrap;html=1;fontSize=21;" parent="1" vertex="1">
          <mxGeometry x="760" y="740" width="120" height="60" as="geometry" />
        </mxCell>
        <mxCell id="WueEC3KFdfhdDTLadoef-66" value="Fim" style="ellipse;whiteSpace=wrap;html=1;fontSize=21;" parent="1" vertex="1">
          <mxGeometry x="260" y="900" width="120" height="60" as="geometry" />
        </mxCell>
      </root>
    </mxGraphModel>
  </diagram>
</mxfile>
